HIERARCHY
ROOT Hips
{
    OFFSET 0.0 0.0 0.0
    CHANNELS 6 Xposition Yposition Zposition Zrotation Xrotation Yrotation
    JOINT Spine
    {
        OFFSET 0.0 5.0 0.0
        CHANNELS 3 Zrotation Xrotation Yrotation
        JOINT Chest
        {
            OFFSET 0.0 5.0 0.0
            CHANNELS 3 Zrotation Xrotation Yrotation
            JOINT Neck
            {
                OFFSET 0.0 8.0 0.0
                CHANNELS 3 Zrotation Xrotation Yrotation
                JOINT Head
                {
                    OFFSET 0.0 5.0 0.0
                    CHANNELS 3 Zrotation Xrotation Yrotation
                    End Site
                    {
                        OFFSET 0.0 3.0 0.0
                    }
                }
            }
            JOINT LeftShoulder
            {
                OFFSET -5.0 0.0 0.0
                CHANNELS 3 Zrotation Xrotation Yrotation
                JOINT LeftArm
                {
                    OFFSET 0.0 -10.0 0.0
                    CHANNELS 3 Zrotation Xrotation Yrotation
                    JOINT LeftForeArm
                    {
                        OFFSET 0.0 -10.0 0.0
                        CHANNELS 3 Zrotation Xrotation Yrotation
                        End Site
                        {
                            OFFSET 0.0 -3.0 0.0
                        }
                    }
                }
            }
        }
    }
}

MOTION
Frames: 18
Frame Time: 0.033333
960.000000 445.000000 111.574766 0.000000 0.000000 0.000000 0.000000 0.000000 0.000000 23.025492 11.907774 0.000000 180.000000 -1.418401 0.000000 21.801409 6.345827 -0.000000 158.198591 -0.590848 30.000000 15.945396 8.320205 0.000000 18.000000 0.146942 0.000000
1691.525230 140.756605 102.919671 0.000000 0.000000 0.000000 0.000000 0.000000 0.000000 -163.376529 -3.773138 4.973798 16.623471 -2.929612 4.973798 -171.853121 -3.348048 3.759997 99.744051 -3.916410 29.763441 -171.126653 -3.684163 -3.759997 0.673538 0.423125 0.313953
1636.048050 128.802021 97.642854 0.000000 0.000000 0.000000 0.000000 0.000000 0.000000 157.904128 -7.603489 9.635073 -22.095872 14.616816 9.635073 -171.936471 -3.716008 7.460697 -143.675701 3.808627 29.057495 -173.500805 -4.034719 -7.460697 0.570999 0.444513 0.626666
1578.156967 80.474526 120.405839 0.000000 0.000000 0.000000 0.000000 0.000000 0.000000 -139.519796 -9.122358 13.690942 40.480204 11.415258 13.690942 -174.507724 -4.047120 11.043737 119.111399 17.787440 27.893295 -173.607258 -4.631224 -11.043737 0.461920 0.497208 0.936907
960.418757 444.998421 125.827165 0.000000 0.000000 0.000000 0.000000 0.000000 0.000000 25.077893 -25.404551 16.886559 180.000000 15.421169 16.886559 23.861935 -12.046278 14.452610 156.138065 9.695369 26.289200 17.903699 -11.444355 -14.452610 18.000000 0.859043 1.243449
960.523360 444.997533 124.098461 0.000000 0.000000 0.000000 0.000000 0.000000 0.000000 25.638906 -9.519506 19.021130 180.000000 12.072073 19.021130 24.425035 -0.055019 17.633558 155.574965 -3.824152 24.270510 18.452907 3.859245 -17.633558 18.000000 0.288231 1.545085
960.627905 444.996447 125.272322 0.000000 0.000000 0.000000 0.000000 0.000000 0.000000 26.219073 8.829676 19.960535 180.000000 13.764305 19.960535 25.006291 -23.223200 20.536413 154.993709 -1.702871 21.869059 19.024920 10.110709 -20.536413 18.000000 -0.391691 1.840623
1126.242828 420.359820 120.633418 0.000000 0.000000 0.000000 0.000000 0.000000 0.000000 31.410514 3.884295 19.645745 -148.589486 -2.158144 19.645745 32.280463 0.410021 23.115397 -131.603972 -4.940556 19.122720 45.585331 3.038473 -23.115397 -13.449727 -0.066556 2.128896
1257.895088 650.549197 137.708376 0.000000 0.000000 0.000000 0.000000 0.000000 0.000000 25.073180 18.575421 18.096541 -154.926820 -11.660088 18.096541 46.260945 -7.233311 25.329838 -154.651428 -5.892767 16.074804 27.339487 5.100092 -25.329838 -13.619892 1.440897 2.408768
960.941083 444.992008 130.992855 0.000000 0.000000 0.000000 0.000000 0.000000 0.000000 28.072001 19.167369 15.410265 180.000000 -11.773115 15.410265 26.849221 -0.062006 27.144812 153.150779 0.951500 12.773379 20.864045 3.250973 -27.144812 18.000000 -0.755841 2.679134
1163.815842 547.748709 138.998871 0.000000 0.000000 0.000000 0.000000 0.000000 0.000000 117.162728 13.841289 11.755705 -62.837272 -11.453041 11.755705 102.363764 -2.721332 28.531695 -47.376450 -0.732869 9.270510 104.768601 -0.405471 -28.531695 -6.003489 -0.113529 2.938926
961.149372 444.988063 143.756665 0.000000 0.000000 0.000000 0.000000 0.000000 0.000000 29.395983 -10.119589 7.362491 180.000000 -6.007098 7.362491 28.146217 -8.409189 29.468618 151.853783 10.113735 5.621439 22.170006 -4.966759 -29.468618 18.000000 -0.041203 3.187120
1136.717377 590.104480 143.471971 0.000000 0.000000 0.000000 0.000000 0.000000 0.000000 115.752126 4.835883 2.506665 -64.247874 -9.476227 2.506665 73.638146 3.184652 29.940802 -21.842452 -1.033440 1.883716 75.369282 -0.927639 -29.940802 -6.767207 -0.396921 3.422736
1163.079758 634.077559 152.956055 0.000000 0.000000 0.000000 0.000000 0.000000 0.000000 132.174340 1.191414 -2.506665 -47.825660 -5.068400 -2.506665 94.255711 1.528736 29.940802 -149.364979 -6.867632 -1.883716 30.021641 5.300962 -29.940802 -5.096180 0.799131 3.644843
961.460830 444.980668 142.459803 0.000000 0.000000 0.000000 0.000000 0.000000 0.000000 31.497152 -23.271343 -7.362491 180.000000 19.612274 -7.362491 30.152455 -6.848665 29.468618 149.847545 17.084565 -5.621439 24.175589 -17.951348 -29.468618 18.000000 0.585847 3.852566
1097.449951 565.089898 166.898426 0.000000 0.000000 0.000000 0.000000 0.000000 0.000000 -119.219568 -3.029752 -11.755705 60.780432 -3.464408 -11.755705 -150.180642 -6.531052 28.531695 48.804955 2.282875 -9.270510 -149.874178 -6.789358 -28.531695 2.713854 0.581605 4.045085
1114.140244 528.302071 153.932429 0.000000 0.000000 0.000000 0.000000 0.000000 0.000000 -142.671523 -4.601952 -15.410265 37.328477 7.448394 -15.410265 -177.395681 2.300216 27.144812 34.687329 4.028566 -12.773379 161.894167 -1.721393 -27.144812 -0.910956 0.006197 4.221640
1116.433640 479.728639 160.596397 0.000000 0.000000 0.000000 0.000000 0.000000 0.000000 -102.267481 10.045217 -18.096541 77.732519 -7.516816 -18.096541 -163.695626 4.325621 25.329838 38.575767 -2.854556 -16.074804 -176.001122 0.026351 -25.329838 0.706594 -0.132871 4.381533
